<svg xmlns="http://www.w3.org/2000/svg" viewBox="0 0 64 64">
  <defs>
    <linearGradient id="mb-gold" x1="0" y1="0" x2="0" y2="64" gradientUnits="userSpaceOnUse">
      <stop offset="0" stop-color="#f3ca55"/>
      <stop offset="1" stop-color="#b8860b"/>
    </linearGradient>
  </defs>
  <circle cx="32" cy="32" r="32" fill="#fdf3d9"/>
  <!-- beyin ana hatları (lucide "brain" ikonunun path'leri, 24x24'ten 64x64 rozete ölçeklendi) -->
  <g transform="translate(6.5,6.5) scale(2.17)" fill="none" stroke="url(#mb-gold)" stroke-width="1.05" stroke-linecap="round" stroke-linejoin="round">
    <path d="M15 13a4.17 4.17 0 0 1-3-4 4.17 4.17 0 0 1-3 4"/>
    <path d="M17.598 6.5A3 3 0 1 0 12 5a3 3 0 1 0-5.598 1.5"/>
    <path d="M17.997 5.125a4 4 0 0 1 2.526 5.77"/>
    <path d="M18 18a4 4 0 0 0 2-7.464"/>
    <path d="M19.967 17.483A4 4 0 1 1 12 18a4 4 0 1 1-7.967-.517"/>
    <path d="M6 18a4 4 0 0 1-2-7.464"/>
    <path d="M6.003 5.125a4 4 0 0 0-2.526 5.77"/>
  </g>
  <!-- mikrofon: beynin önünde/içinde, kayıt fikrini temsil ediyor -->
  <rect x="26" y="21" width="12" height="19" rx="6" fill="url(#mb-gold)"/>
  <path d="M20.5 34a11.5 11.5 0 0 0 23 0" stroke="url(#mb-gold)" stroke-width="3" stroke-linecap="round" fill="none"/>
  <line x1="32" y1="45.5" x2="32" y2="50.5" stroke="url(#mb-gold)" stroke-width="3" stroke-linecap="round"/>
  <line x1="26.5" y1="50.5" x2="37.5" y2="50.5" stroke="url(#mb-gold)" stroke-width="3" stroke-linecap="round"/>
</svg>
